<svg width="680" height="629" viewBox="0 0 680 629" fill="none" xmlns="http://www.w3.org/2000/svg">
  <path d="M372.282 217.647L379.279 164.56L332.087 141.204L325.099 221.887L372.282 217.647Z" fill="#EEB3A3"/>
  <path d="M360.357 181.624C386.935 181.624 408.48 155.447 408.48 123.156C408.48 90.8643 386.935 64.687 360.357 64.687C333.78 64.687 312.234 90.8643 312.234 123.156C312.234 155.447 333.78 181.624 360.357 181.624Z" fill="#EEB3A3"/>
  <path d="M356.523 44.5554C357.919 45.5395 359.78 44.0529 360.228 42.1685C360.676 40.2841 360.15 38.2846 359.642 36.4316C358.78 33.3223 357.91 30.2026 357.048 27.0934C355.204 20.4666 353.249 13.6095 349.268 8.56351C343.245 0.952659 333.681 -0.984079 325.073 0.418747C314.018 2.21939 303.101 9.49524 297.965 21.5239C292.821 33.5527 295.01 50.3447 304.307 57.8509C291.064 76.2865 286.445 96.8473 287.178 121.303C287.91 145.758 309.839 168.266 324.151 185.498C327.348 183.142 330.251 172.118 328.493 168.109C326.736 164.099 329.252 159.462 327.08 155.777C324.909 152.091 323.082 157.964 325.288 154.29C326.675 151.976 321.256 146.648 323.324 145.266C333.301 138.566 336.619 123.449 342.892 111.881C350.448 97.9256 363.39 88.4723 377.082 86.9019C384.621 86.033 392.591 87.6033 398.769 92.9215C404.947 98.2397 408.954 107.745 407.523 116.79C411.237 112.205 413.081 105.495 412.383 99.1296C411.685 92.7645 408.463 86.8601 403.887 83.6252C406.662 72.4654 404.284 59.6306 397.839 50.9938C391.394 42.357 365.234 43.8331 355.825 46.1048" fill="#2E3B41"/>
  <path d="M355.058 87.2266C342.59 88.8597 333.585 101.988 325.986 114.1C321.609 121.083 317.016 128.798 317.128 137.582C317.24 146.459 322.126 154.07 324.461 162.487C328.278 176.243 324.555 192.596 315.474 202.018C324.452 204.09 334.154 195.914 335.705 184.974C337.506 172.244 329.562 159.954 330.501 147.077C331.328 135.739 338.686 127.008 344.933 118.528C351.18 110.049 357.057 98.7946 354.179 87.9594" fill="#2E3B41"/>
  <path d="M357.444 622.719C357.444 622.719 253.185 635.281 245.431 620.625C237.676 605.968 351.232 591.312 351.232 591.312L357.444 622.719Z" fill="#EEB3A3"/>
  <path d="M290.969 387.861L288.814 401.753C294.682 412.274 295.242 423.392 291.83 434.97L410.737 436.017C409.462 420.366 408.057 403.595 412.952 388.217L290.969 387.861Z" fill="#EEB3A3"/>
  <path d="M485.735 491.157L442.609 449.239C436.879 443.67 433.166 435.389 432.433 426.522L425.79 346.676L465.383 330.638L474.93 409.698L498.72 475.391L485.743 491.157L485.735 491.157Z" fill="#EEB3A3"/>
  <path d="M320.695 212.507L378.425 209.366L439.602 244.772L414.614 389.431L287.953 400.946L270.72 240.773L320.695 212.507Z" fill="#E8FCFF"/>
  <path d="M412.952 422.764C421.629 436.656 425.265 470.104 428.953 503.374C428.953 503.374 268.687 502.327 267.825 502.327C266.964 502.327 292.322 432.186 292.322 432.186L412.952 422.764Z" fill="#2E3B41"/>
  <path d="M418.19 494.496L428.961 503.373C428.961 503.373 581.472 490.811 568.547 549.436C555.623 608.062 515.125 617.484 515.125 617.484L351.413 629L349.69 596.546C349.69 596.546 192.009 639.469 177.361 551.53C162.713 463.592 267.834 502.327 267.834 502.327L418.19 494.496Z" fill="#2E3B41"/>
  <path d="M353.834 564.093C353.834 564.093 357.444 541.062 383.294 550.484C409.143 559.906 423.791 572.468 423.791 572.468L361.752 591.312L353.834 564.093Z" fill="#EEB3A3"/>
  <path d="M418.492 242.343C418.492 242.343 447.788 229.781 458.989 270.609C470.191 311.438 467.606 344.938 467.606 344.938L424.524 361.688L418.492 242.343Z" fill="#E8FCFF"/>
  <path d="M217.6 497.532L208.199 477.411L228.508 415.99L238.055 336.919L277.648 352.957L270.918 433.777C270.229 442.037 266.774 449.742 261.44 454.924L217.6 497.543L217.6 497.532Z" fill="#EEB3A3"/>
  <path d="M284.937 242.343C284.937 242.343 255.641 229.781 244.44 270.609C233.238 311.438 235.823 344.938 235.823 344.938L278.905 361.688L284.937 242.343Z" fill="#E8FCFF"/>
  <path d="M498.194 500.401C509.615 500.401 518.874 483.762 518.874 463.236C518.874 442.711 509.615 426.072 498.194 426.072C486.773 426.072 477.515 442.711 477.515 463.236C477.515 483.762 486.773 500.401 498.194 500.401Z" fill="#EEB3A3"/>
  <path d="M207.82 506.682C219.241 506.682 228.5 490.043 228.5 469.517C228.5 448.992 219.241 432.353 207.82 432.353C196.399 432.353 187.141 448.992 187.141 469.517C187.141 490.043 196.399 506.682 207.82 506.682Z" fill="#EEB3A3"/>
  <path d="M286.79 561.64L361.753 587.812L376.401 619.218L348.389 626.547" fill="#2E3B41"/>
</svg>
